<?xml version="1.0" encoding="UTF-8" standalone="no"?>
<svg
   xmlns:dc="http://purl.org/dc/elements/1.1/"
   xmlns:cc="http://creativecommons.org/ns#"
   xmlns:rdf="http://www.w3.org/1999/02/22-rdf-syntax-ns#"
   xmlns:svg="http://www.w3.org/2000/svg"
   xmlns="http://www.w3.org/2000/svg"
   id="svg2747"
   version="1.1"
   viewBox="0 0 8.6879816 8.6879816"
   height="8.6879816mm"
   width="8.6879816mm">
  <defs
     id="defs2741">
    <clipPath
       id="clipPath1838"
       clipPathUnits="userSpaceOnUse">
      <path
         id="path1836"
         d="m 0,0 h 842 v 595 h -842 z" />
    </clipPath>
  </defs>
  <metadata
     id="metadata2744">
    <rdf:RDF>
      <cc:Work
         rdf:about="">
        <dc:format>image/svg+xml</dc:format>
        <dc:type
           rdf:resource="http://purl.org/dc/dcmitype/StillImage" />
        <dc:title></dc:title>
      </cc:Work>
    </rdf:RDF>
  </metadata>
  <g
     transform="translate(-6.2393427,-10.685771)"
     id="layer1">
    <path
       d="m 12.828411,17.274839 c -0.275554,0.27552 -0.722277,0.27552 -0.997832,0 -0.275519,-0.275555 -0.275519,-0.722277 0,-0.997832 0.275555,-0.275519 0.722278,-0.275519 0.997832,0 0.27552,0.275555 0.27552,0.722277 0,0.997832 z m -2.9934249,1.496695 0.9977969,-0.997797 c 0.137759,-0.137759 0.361138,-0.137759 0.498898,0 0.13776,0.13776 0.13776,0.361139 0,0.498899 l -0.997797,0.997796 c -0.137759,0.13776 -0.3611382,0.13776 -0.4988979,0 -0.1377597,-0.137759 -0.1377597,-0.361138 0,-0.498898 z m 3.9912219,-0.997797 0.997797,0.997797 c 0.137759,0.13776 0.137759,0.361139 0,0.498898 -0.13776,0.13776 -0.361139,0.13776 -0.498899,0 l -0.997796,-0.997796 c -0.13776,-0.13776 -0.13776,-0.361139 0,-0.498899 0.137759,-0.137759 0.361138,-0.137759 0.498898,0 z m -4.4901202,-3.991221 c -0.2755548,0.275519 -0.7222773,0.275519 -0.997832,0 -0.2755194,-0.275555 -0.2755194,-0.722278 0,-0.997832 0.2755547,-0.27552 0.7222772,-0.27552 0.997832,0 0.2755194,0.275554 0.2755194,0.722277 0,0.997832 z m 0.4988983,-1.995629 0.9977969,-0.997797 c 0.137759,-0.137759 0.361138,-0.137759 0.498898,0 0.13776,0.13776 0.13776,0.361139 0,0.498899 l -0.997797,0.997796 c -0.137759,0.137795 -0.3611382,0.137795 -0.4988979,0 -0.1377597,-0.137759 -0.1377597,-0.361138 0,-0.498898 z m 0.4988979,2.494527 0.997797,0.997796 c 0.13776,0.13776 0.13776,0.361139 0,0.498899 -0.13776,0.13776 -0.361139,0.13776 -0.498898,0 l -0.9977969,-0.997797 c -0.1377597,-0.13776 -0.1377597,-0.361138 0,-0.498898 0.1377597,-0.13776 0.3611389,-0.13776 0.4988979,0 z m -3.4923231,-3.492324 0.9977966,0.997797 c 0.137795,0.13776 0.137795,0.361139 0,0.498898 -0.1377597,0.137795 -0.3611386,0.137795 -0.4988983,0 l -0.9977967,-0.997796 c -0.1377597,-0.13776 -0.1377597,-0.361139 0,-0.498899 0.1377598,-0.137759 0.3611386,-0.137759 0.4988984,0 z"
       id="path1830"
       style="clip-rule:evenodd;stroke-width:0.35277778;fill:#539bef;fill-opacity:1" />
  </g>
</svg>
