<svg width="1419" height="251" viewBox="0 0 1419 251" fill="none" xmlns="http://www.w3.org/2000/svg">
<path d="M1321.59 192C1315.59 192 1310.12 191.067 1305.19 189.2C1300.26 187.333 1296.26 184.467 1293.19 180.6C1290.12 176.733 1287.99 171.867 1286.79 166C1285.72 160.133 1285.86 153.267 1287.19 145.4C1287.72 142.467 1288.19 139.933 1288.59 137.8C1289.12 135.667 1289.72 133.2 1290.39 130.4C1292.26 122.933 1294.72 116.333 1297.79 110.6C1300.99 104.733 1304.79 99.8667 1309.19 96C1313.59 92.1333 1318.46 89.2 1323.79 87.2C1329.12 85.0667 1334.86 84 1340.99 84C1347.12 84 1352.59 85 1357.39 87C1362.32 88.8667 1366.06 91.4 1368.59 94.6L1377.19 53.2C1377.46 51.7333 1378.19 50.5333 1379.39 49.6C1380.59 48.5333 1381.92 48 1383.39 48H1414.19C1415.52 48 1416.59 48.5333 1417.39 49.6C1418.32 50.5333 1418.66 51.7333 1418.39 53.2L1390.39 184.8C1390.12 186.267 1389.32 187.533 1387.99 188.6C1386.79 189.533 1385.52 190 1384.19 190H1355.79C1354.46 190 1353.32 189.533 1352.39 188.6C1351.59 187.533 1351.32 186.267 1351.59 184.8L1352.79 179.2C1348.79 183.067 1344.39 186.2 1339.59 188.6C1334.92 190.867 1328.92 192 1321.59 192ZM1339.79 160.8C1343.26 160.8 1346.12 160.067 1348.39 158.6C1350.79 157.133 1352.72 155.2 1354.19 152.8C1355.79 150.4 1356.99 147.733 1357.79 144.8C1358.59 141.867 1359.19 139.333 1359.59 137.2C1359.99 134.933 1360.39 132.467 1360.79 129.8C1361.32 127 1361.32 124.533 1360.79 122.4C1360.26 120.267 1359.12 118.533 1357.39 117.2C1355.66 115.867 1353.19 115.2 1349.99 115.2C1346.66 115.2 1343.79 115.933 1341.39 117.4C1339.12 118.733 1337.26 120.667 1335.79 123.2C1334.46 125.6 1333.32 128.4 1332.39 131.6C1331.86 133.6 1331.32 135.733 1330.79 138C1330.26 140.267 1329.86 142.4 1329.59 144.4C1329.19 147.6 1329.12 150.467 1329.39 153C1329.66 155.4 1330.59 157.333 1332.19 158.8C1333.92 160.133 1336.46 160.8 1339.79 160.8Z" fill="black"/>
<path d="M1188.94 192C1181.61 192 1175.14 190.333 1169.54 187C1164.08 183.667 1160.21 178.667 1157.94 172C1155.68 165.333 1155.61 156.933 1157.74 146.8L1169.34 91.2C1169.61 89.7333 1170.34 88.5333 1171.54 87.6C1172.88 86.5333 1174.28 86 1175.74 86H1207.34C1208.81 86 1209.94 86.5333 1210.74 87.6C1211.54 88.5333 1211.81 89.7333 1211.54 91.2L1199.94 145.4C1199.28 148.733 1199.14 151.533 1199.54 153.8C1199.94 156.067 1201.01 157.8 1202.74 159C1204.48 160.2 1206.88 160.8 1209.94 160.8C1214.48 160.8 1218.28 159.467 1221.34 156.8C1224.54 154.133 1226.68 150.333 1227.74 145.4L1239.14 91.2C1239.41 89.7333 1240.14 88.5333 1241.34 87.6C1242.68 86.5333 1244.08 86 1245.54 86H1277.14C1278.61 86 1279.68 86.5333 1280.34 87.6C1281.14 88.5333 1281.41 89.7333 1281.14 91.2L1261.34 184.8C1261.08 186.267 1260.34 187.533 1259.14 188.6C1257.94 189.533 1256.61 190 1255.14 190H1225.94C1224.61 190 1223.48 189.533 1222.54 188.6C1221.74 187.533 1221.48 186.267 1221.74 184.8L1223.34 177.6C1220.41 180.8 1217.34 183.467 1214.14 185.6C1210.94 187.733 1207.34 189.333 1203.34 190.4C1199.34 191.467 1194.54 192 1188.94 192Z" fill="black"/>
<path d="M1077.94 192C1066.88 192 1057.54 190.267 1049.94 186.8C1042.34 183.333 1036.81 178.267 1033.34 171.6C1030.01 164.8 1029.01 156.667 1030.34 147.2C1030.74 144.4 1031.28 141.333 1031.94 138C1032.61 134.667 1033.41 131.6 1034.34 128.8C1037.01 119.2 1041.01 111.067 1046.34 104.4C1051.68 97.7333 1058.54 92.6667 1066.94 89.2C1075.48 85.7333 1085.61 84 1097.34 84C1108.01 84 1117.14 85.7333 1124.74 89.2C1132.34 92.6667 1138.01 97.7333 1141.74 104.4C1145.48 111.067 1146.61 119.2 1145.14 128.8C1144.61 131.6 1144.01 134.667 1143.34 138C1142.68 141.333 1141.94 144.4 1141.14 147.2C1138.61 156.667 1134.74 164.8 1129.54 171.6C1124.34 178.267 1117.54 183.333 1109.14 186.8C1100.74 190.267 1090.34 192 1077.94 192ZM1081.94 163.8C1086.88 163.8 1090.61 162.333 1093.14 159.4C1095.68 156.467 1097.74 152.067 1099.34 146.2C1099.88 144.2 1100.48 141.467 1101.14 138C1101.94 134.533 1102.54 131.8 1102.94 129.8C1103.74 124.067 1103.54 119.733 1102.34 116.8C1101.28 113.733 1098.28 112.2 1093.34 112.2C1088.54 112.2 1084.81 113.733 1082.14 116.8C1079.61 119.733 1077.61 124.067 1076.14 129.8C1075.61 131.8 1074.94 134.533 1074.14 138C1073.34 141.467 1072.81 144.2 1072.54 146.2C1071.74 152.067 1071.88 156.467 1072.94 159.4C1074.01 162.333 1077.01 163.8 1081.94 163.8Z" fill="black"/>
<path d="M969.008 190C967.541 190 966.408 189.533 965.608 188.6C964.808 187.533 964.541 186.267 964.808 184.8L992.808 53.2C993.075 51.7333 993.808 50.5333 995.008 49.6C996.208 48.5333 997.541 48 999.008 48H1028.61C1030.07 48 1031.21 48.5333 1032.01 49.6C1032.94 50.5333 1033.27 51.7333 1033.01 53.2L1004.81 184.8C1004.54 186.267 1003.81 187.533 1002.61 188.6C1001.41 189.533 1000.07 190 998.608 190H969.008Z" fill="black"/>
<path d="M886.043 192C876.977 192 868.643 190.933 861.043 188.8C853.443 186.533 847.043 183.2 841.843 178.8C836.643 174.267 832.91 168.6 830.643 161.8C828.51 155 828.177 147 829.643 137.8C830.577 132.333 831.71 126.467 833.043 120.2C834.51 113.933 835.91 107.933 837.243 102.2C840.443 90.2 845.243 80.2 851.643 72.2C858.043 64.0667 866.043 58 875.643 54C885.377 50 896.71 48 909.643 48C917.91 48 925.843 49.0667 933.443 51.2C941.043 53.2 947.643 56.2667 953.243 60.4C958.977 64.5333 963.177 69.7333 965.843 76C968.51 82.1333 969.043 89.3333 967.443 97.6C967.177 98.8 966.51 99.8667 965.443 100.8C964.51 101.6 963.443 102 962.243 102H928.243C926.377 102 924.977 101.6 924.043 100.8C923.243 100 922.71 98.6 922.443 96.6C922.31 91 920.71 87.2 917.643 85.2C914.71 83.0667 910.843 82 906.043 82C900.177 82 895.11 83.6 890.843 86.8C886.71 89.8667 883.71 95.3333 881.843 103.2C879.043 114.133 876.643 125.333 874.643 136.8C873.177 144.667 873.777 150.2 876.443 153.4C879.243 156.467 883.577 158 889.443 158C894.243 158 898.577 156.933 902.443 154.8C906.443 152.667 909.777 148.867 912.443 143.4C913.51 141.267 914.577 139.867 915.643 139.2C916.843 138.4 918.443 138 920.443 138H954.443C955.643 138 956.577 138.4 957.243 139.2C958.043 140 958.31 141 958.043 142.2C955.91 150.467 952.71 157.733 948.443 164C944.31 170.133 939.11 175.333 932.843 179.6C926.577 183.733 919.51 186.867 911.643 189C903.777 191 895.243 192 886.043 192Z" fill="black"/>
<path d="M652.015 190C650.548 190 649.415 189.533 648.615 188.6C647.815 187.533 647.548 186.267 647.815 184.8L675.815 53.2C676.082 51.7333 676.815 50.5333 678.015 49.6C679.215 48.5333 680.548 48 682.015 48H714.215C715.682 48 716.815 48.5333 717.615 49.6C718.548 50.5333 718.881 51.7333 718.615 53.2L709.215 97C713.482 93 718.148 89.8667 723.215 87.6C728.415 85.2 734.282 84 740.815 84C748.682 84 755.415 85.6667 761.015 89C766.748 92.3333 770.748 97.3333 773.015 104C775.415 110.667 775.548 119.067 773.415 129.2L761.415 184.8C761.148 186.267 760.415 187.533 759.215 188.6C758.015 189.533 756.682 190 755.215 190H722.815C721.348 190 720.215 189.533 719.415 188.6C718.615 187.533 718.348 186.267 718.615 184.8L730.015 130.6C731.082 125.667 730.748 121.867 729.015 119.2C727.415 116.533 724.415 115.2 720.015 115.2C717.082 115.2 714.348 115.8 711.815 117C709.415 118.2 707.348 119.933 705.615 122.2C703.882 124.467 702.682 127.267 702.015 130.6L690.415 184.8C690.148 186.267 689.415 187.533 688.215 188.6C687.015 189.533 685.682 190 684.215 190H652.015Z" fill="black"/>
<path d="M514.518 228C513.051 228 511.985 227.467 511.318 226.4C510.518 225.467 510.251 224.267 510.518 222.8L538.318 91.2C538.585 89.7333 539.318 88.5333 540.518 87.6C541.851 86.5333 543.251 86 544.718 86H572.918C574.385 86 575.518 86.5333 576.318 87.6C577.118 88.5333 577.385 89.7333 577.118 91.2L575.718 97.8C579.585 93.8 583.918 90.5333 588.718 88C593.651 85.3333 599.718 84 606.918 84C613.185 84 618.718 84.9333 623.518 86.8C628.318 88.6667 632.318 91.5333 635.518 95.4C638.718 99.2667 640.851 104.133 641.918 110C642.985 115.867 642.851 122.733 641.518 130.6C640.985 133.4 640.518 135.867 640.118 138C639.718 140.133 639.118 142.667 638.318 145.6C636.451 153.067 633.918 159.733 630.718 165.6C627.518 171.333 623.785 176.133 619.518 180C615.251 183.867 610.451 186.867 605.118 189C599.785 191 593.985 192 587.718 192C581.451 192 575.918 191 571.118 189C566.451 186.867 562.985 183.6 560.718 179.2L551.518 222.8C551.251 224.267 550.451 225.467 549.118 226.4C547.918 227.467 546.651 228 545.318 228H514.518ZM578.718 160.8C582.185 160.8 584.985 160.133 587.118 158.8C589.385 157.333 591.251 155.333 592.718 152.8C594.185 150.267 595.451 147.467 596.518 144.4C597.185 142.4 597.718 140.267 598.118 138C598.651 135.733 598.985 133.6 599.118 131.6C599.651 128.4 599.718 125.6 599.318 123.2C598.918 120.667 597.918 118.733 596.318 117.4C594.851 115.933 592.385 115.2 588.918 115.2C585.585 115.2 582.651 115.933 580.118 117.4C577.718 118.867 575.785 120.8 574.318 123.2C572.985 125.6 571.918 128.267 571.118 131.2C570.185 134 569.451 136.533 568.918 138.8C568.518 140.933 568.118 143.4 567.718 146.2C567.318 149 567.385 151.467 567.918 153.6C568.451 155.733 569.585 157.467 571.318 158.8C573.051 160.133 575.518 160.8 578.718 160.8Z" fill="black"/>
<path d="M449.234 192C438.168 192 428.901 190.133 421.434 186.4C414.101 182.533 409.034 176.733 406.234 169C403.434 161.267 403.234 151.467 405.634 139.6C405.768 139.067 405.901 138.4 406.034 137.6C406.168 136.667 406.301 136 406.434 135.6C409.101 124.533 413.501 115.2 419.634 107.6C425.768 99.8667 433.301 94 442.234 90C451.168 86 461.101 84 472.034 84C484.301 84 493.901 86.4667 500.834 91.4C507.901 96.2 512.501 102.667 514.634 110.8C516.901 118.8 517.034 127.8 515.034 137.8L514.034 143.4C513.768 144.733 512.968 145.933 511.634 147C510.434 148.067 509.101 148.6 507.634 148.6H445.834C445.834 148.6 445.768 148.733 445.634 149C445.634 149.267 445.634 149.533 445.634 149.8C444.968 153 444.768 155.867 445.034 158.4C445.434 160.8 446.368 162.733 447.834 164.2C449.434 165.533 451.568 166.2 454.234 166.2C455.968 166.2 457.501 165.933 458.834 165.4C460.168 164.867 461.368 164.2 462.434 163.4C463.501 162.467 464.501 161.6 465.434 160.8C466.901 159.6 468.034 158.867 468.834 158.6C469.768 158.2 470.968 158 472.434 158H503.834C505.168 158 506.168 158.4 506.834 159.2C507.501 160 507.634 161 507.234 162.2C506.568 164.6 504.834 167.533 502.034 171C499.234 174.333 495.301 177.6 490.234 180.8C485.301 184 479.368 186.667 472.434 188.8C465.501 190.933 457.768 192 449.234 192ZM450.634 126.2H475.634V125.8C476.434 122.2 476.568 119.133 476.034 116.6C475.634 114.067 474.634 112.2 473.034 111C471.434 109.667 469.301 109 466.634 109C463.968 109 461.568 109.667 459.434 111C457.301 112.2 455.501 114.067 454.034 116.6C452.701 119.133 451.568 122.2 450.634 125.8V126.2Z" fill="black"/>
<path d="M340.296 190C338.829 190 337.696 189.533 336.896 188.6C336.096 187.533 335.829 186.267 336.096 184.8L364.096 53.2C364.363 51.7333 365.096 50.5333 366.296 49.6C367.496 48.5333 368.829 48 370.296 48H399.896C401.363 48 402.496 48.5333 403.296 49.6C404.229 50.5333 404.563 51.7333 404.296 53.2L376.096 184.8C375.829 186.267 375.096 187.533 373.896 188.6C372.696 189.533 371.363 190 369.896 190H340.296Z" fill="black"/>
<path d="M181.655 190C180.188 190 179.121 189.4 178.455 188.2C177.788 186.867 177.855 185.533 178.655 184.2L251.455 56.2C252.255 54.7333 253.455 53.3333 255.055 52C256.655 50.6667 258.721 50 261.255 50H298.855C301.388 50 303.188 50.6667 304.255 52C305.321 53.3333 305.921 54.7333 306.055 56.2L324.655 184.2C324.921 185.933 324.455 187.333 323.255 188.4C322.188 189.467 320.921 190 319.455 190H289.455C287.188 190 285.588 189.467 284.655 188.4C283.855 187.333 283.321 186.267 283.055 185.2L280.255 168.6H232.255L222.255 185.4C221.721 186.467 220.788 187.533 219.455 188.6C218.255 189.533 216.521 190 214.255 190H181.655ZM248.455 134.8H278.255L273.055 89.8L248.455 134.8Z" fill="black"/>
<path d="M120.677 96.3666C135.774 96.3666 148 84.1405 148 69.0435C148 53.9465 135.774 41.7205 120.677 41.7205C105.58 41.7205 93.3535 53.9465 93.3535 69.0435C93.3535 84.1405 105.58 96.3666 120.677 96.3666Z" fill="#029AFF"/>
<path d="M27.3231 189.72C42.4201 189.72 54.6462 177.494 54.6462 162.397C54.6462 147.3 42.4201 135.074 27.3231 135.074C12.2261 135.074 0 147.325 0 162.397C0 177.47 12.2261 189.72 27.3231 189.72Z" fill="#029AFF"/>
<path d="M101.372 49.7392C75.46 38.9981 44.5483 44.1707 23.4867 65.2074C2.42518 86.269 -2.72264 117.205 7.99375 143.093L101.372 49.7145V49.7392Z" fill="#029AFF"/>
<path d="M46.6274 181.727C72.5398 192.468 103.452 187.295 124.513 166.258C145.575 145.197 150.722 114.26 139.981 88.3727L46.6274 181.727Z" fill="#029AFF"/>
</svg>
