<svg width="1368" height="213" viewBox="0 0 1368 213" fill="none" xmlns="http://www.w3.org/2000/svg">
<g clip-path="url(#clip0_7010_572)">
<g clip-path="url(#clip1_7010_572)">
<path d="M154.137 69.5367C173.463 69.5367 189 53.9999 189 34.7683C189 15.5368 173.369 0 154.137 0C134.811 0 119.274 15.5368 119.274 34.7683C119.274 53.9999 134.811 69.5367 154.137 69.5367Z" fill="black"/>
<path d="M34.8635 188.147C54.1898 188.147 69.7266 172.61 69.7266 153.378C69.7266 134.147 54.095 118.61 34.8635 118.61C15.5372 118.61 0.000428356 134.147 0.000428356 153.378C-0.0943083 172.61 15.5372 188.147 34.8635 188.147Z" fill="black"/>
<path d="M129.411 10.2316C96.3482 -3.41051 56.843 3.12632 29.9378 29.842C3.03259 56.6525 -3.50424 95.8735 10.1378 128.842L129.411 10.2316Z" fill="black"/>
<path d="M59.4958 178.01C92.5589 191.652 132.064 185.115 158.969 158.4C185.875 131.589 192.411 92.3682 178.769 59.3999L59.4958 178.01Z" fill="black"/>
</g>
</g>
<path d="M343.276 167.5L334.716 141.82H282.072L273.512 167.5H234.564L289.776 21.98H328.938L384.15 167.5H343.276ZM292.772 110.148H324.016L308.394 63.282L292.772 110.148ZM430.847 138.396H441.975V167.5H411.801L388.689 144.388V13.42H425.069V132.618L430.847 138.396ZM526.955 60.286L549.853 83.184V124.486H483.085V135.186L488.649 140.75H514.543L528.667 126.626L549.853 147.812L530.165 167.5H469.603L446.705 144.602V83.184L469.603 60.286H526.955ZM483.085 102.444H513.473V92.6L507.909 87.036H488.649L483.085 92.6V102.444ZM641.283 60.286L664.181 83.184V137.112L633.793 167.5H598.697V212.44H562.317V60.286H594.417L594.845 77.192L611.751 60.286H641.283ZM615.603 138.396L627.801 126.198V97.522L619.669 89.39H608.541L598.697 99.234V138.396H615.603ZM757.058 60.286L776.532 79.76V167.5H740.152V94.098L735.444 89.39H726.456L712.76 103.086V167.5H676.38V13.42H712.76V77.192L729.666 60.286H757.058ZM935.018 116.996L961.34 143.318L937.158 167.5H864.826L835.936 138.61V50.87L864.826 21.98H935.66L959.842 46.162L933.52 72.484L917.256 56.22H883.444L874.456 65.208V124.272L883.444 133.26H918.754L935.018 116.996ZM1010.11 138.396H1021.24V167.5H991.064L967.952 144.388V13.42H1004.33V132.618L1010.11 138.396ZM1105.36 60.286L1128.26 83.184V144.602L1105.36 167.5H1048.87L1025.97 144.602V83.184L1048.87 60.286H1105.36ZM1086.32 138.396L1091.88 132.832V94.954L1086.32 89.39H1067.91L1062.35 94.954V132.832L1067.91 138.396H1086.32ZM1203.64 60.286H1240.02V167.5H1207.92L1207.5 150.594L1190.59 167.5H1159.35L1139.87 148.026V60.286H1176.25V133.688L1180.96 138.396H1193.8L1203.64 128.552V60.286ZM1317.68 13.42H1354.06V167.5H1321.96L1321.53 150.594L1304.62 167.5H1275.09L1252.19 144.602V90.674L1282.58 60.286H1317.68V13.42ZM1296.71 138.396H1307.83L1317.68 128.552V89.39H1300.77L1288.57 101.588V130.264L1296.71 138.396Z" fill="black"/>
<defs>
<clipPath id="clip0_7010_572">
<rect width="189" height="189" fill="white"/>
</clipPath>
<clipPath id="clip1_7010_572">
<rect width="189" height="189" fill="white"/>
</clipPath>
</defs>
</svg>
